<svg width="201" height="28" viewBox="0 0 201 28" fill="none" xmlns="http://www.w3.org/2000/svg">
<path d="M39.2689 10.657V12.69H42.0049V18.903H44.5129V6.135H42.0049V10.657H39.2689ZM40.4279 14.685C37.6729 13.754 36.4759 11.607 36.4759 9.536V9.308H39.8769V7.313H30.4719V9.308H33.9109V9.555C33.9109 11.759 32.6569 14.058 29.7879 14.989L31.0419 16.984C33.0939 16.3 34.4619 14.913 35.2409 13.184C35.9819 14.761 37.2929 16.015 39.2119 16.642L40.4279 14.685ZM35.4879 21.335V17.839H32.9799V23.33H44.9119V21.335H35.4879ZM57.2924 8.054H53.4164V6.211H50.9084V8.054H46.9944V10.03H57.2924V8.054ZM50.2624 14.02C50.2624 13.108 51.0224 12.614 52.1624 12.614C53.3024 12.614 54.0624 13.108 54.0624 14.02C54.0624 14.932 53.3024 15.426 52.1624 15.426C51.0224 15.426 50.2624 14.932 50.2624 14.02ZM53.4164 17.174C55.2404 16.813 56.4374 15.616 56.4374 14.02C56.4374 12.044 54.6704 10.714 52.1624 10.714C49.6544 10.714 47.8874 12.044 47.8874 14.02C47.8874 15.616 49.0844 16.813 50.9084 17.174V18.656C49.3694 18.694 47.9254 18.694 46.6714 18.694L46.9754 20.727C49.9394 20.727 53.8724 20.727 57.5584 20.005L57.3684 18.2C56.1144 18.39 54.7654 18.485 53.4164 18.561V17.174ZM62.9544 13.26H60.7694V6.135H58.2614V23.634H60.7694V15.331H62.9544V13.26ZM65.5119 14.799C68.5709 14.381 70.7179 13.07 71.7629 11.284C72.808 13.07 74.9549 14.381 78.0139 14.799L78.9069 12.842C75.354 12.405 73.511 10.695 73.2639 9.023H78.2229V7.028H65.2459V9.023H70.2809C70.0339 10.695 68.1719 12.405 64.5999 12.842L65.5119 14.799ZM79.667 15.806H63.8589V17.801H70.4519V23.672H72.9599V17.801H79.667V15.806ZM92.1615 11.417H85.2265V8.833H92.1615V11.417ZM94.6315 6.876H82.7565V13.393H94.6315V6.876ZM85.1505 18.257H82.6425V23.33H94.8975V21.335H85.1505V18.257ZM80.7995 14.78V16.756H87.6965V19.739H90.2045V16.756H96.6455V14.78H80.7995ZM102.343 22H110.798V19.739H108.157V7.94H106.086C105.193 8.491 104.224 8.852 102.818 9.118V10.847H105.364V19.739H102.343V22ZM116.717 22.266C119.32 22.266 121.638 20.461 121.638 17.326C121.638 14.267 119.662 12.861 117.306 12.861C116.66 12.861 116.166 12.994 115.615 13.26L115.881 10.277H120.992V7.94H113.468L113.088 14.761L114.361 15.597C115.178 15.065 115.634 14.856 116.47 14.856C117.895 14.856 118.845 15.768 118.845 17.402C118.845 19.055 117.819 19.986 116.356 19.986C115.045 19.986 114.057 19.34 113.259 18.561L111.967 20.347C113.012 21.392 114.494 22.266 116.717 22.266ZM125.696 22H128.527C128.755 16.49 129.192 13.621 132.46 9.631V7.94H123.112V10.277H129.439C126.76 14.001 125.943 17.117 125.696 22ZM136.384 22H139.215C139.443 16.49 139.88 13.621 143.148 9.631V7.94H133.8V10.277H140.127C137.448 14.001 136.631 17.117 136.384 22ZM148.274 17.554H153.461V15.559H148.274V17.554ZM159.238 22H167.693V19.739H165.052V7.94H162.981C162.088 8.491 161.119 8.852 159.713 9.118V10.847H162.259V19.739H159.238V22ZM173.689 14.799C172.473 14.799 171.694 14.02 171.694 12.367C171.694 10.638 172.549 9.783 173.594 9.783C174.791 9.783 175.76 10.733 176.007 13.298C175.323 14.381 174.449 14.799 173.689 14.799ZM169.357 20.67C170.193 21.525 171.466 22.266 173.214 22.266C176.007 22.266 178.61 19.967 178.61 14.647C178.61 9.764 176.216 7.674 173.556 7.674C171.143 7.674 169.129 9.479 169.129 12.367C169.129 15.35 170.82 16.794 173.157 16.794C174.126 16.794 175.323 16.205 176.045 15.255C175.931 18.789 174.62 19.986 173.043 19.986C172.207 19.986 171.333 19.549 170.82 18.998L169.357 20.67ZM184.377 14.799C183.161 14.799 182.382 14.02 182.382 12.367C182.382 10.638 183.237 9.783 184.282 9.783C185.479 9.783 186.448 10.733 186.695 13.298C186.011 14.381 185.137 14.799 184.377 14.799ZM180.045 20.67C180.881 21.525 182.154 22.266 183.902 22.266C186.695 22.266 189.298 19.967 189.298 14.647C189.298 9.764 186.904 7.674 184.244 7.674C181.831 7.674 179.817 9.479 179.817 12.367C179.817 15.35 181.508 16.794 183.845 16.794C184.814 16.794 186.011 16.205 186.733 15.255C186.619 18.789 185.308 19.986 183.731 19.986C182.895 19.986 182.021 19.549 181.508 18.998L180.045 20.67ZM191.304 22H199.759V19.739H197.118V7.94H195.047C194.154 8.491 193.185 8.852 191.779 9.118V10.847H194.325V19.739H191.304V22Z" fill="black"/>
<g clip-path="url(#clip0_15_270)">
<path d="M17.2652 20.0379C17.2652 21.9121 15.76 23.4332 13.8971 23.4369H13.8897C6.52754 23.4369 0.558838 17.42 0.558838 9.99844V9.9684C0.558838 9.9684 0.558838 9.94962 0.558838 9.93835C0.573741 8.07544 2.07523 6.56934 3.92695 6.56934C4.15049 6.56934 4.36659 6.59187 4.57896 6.63319C4.57896 6.63319 4.58268 6.63319 4.58641 6.63319C4.85094 6.68577 5.05213 6.8961 5.11174 7.15901L6.12143 11.7111C6.21085 12.1205 6.02083 12.5374 5.65198 12.7327L4.57523 13.2999C5.57002 16.1205 7.78686 18.3553 10.5849 19.3506L11.155 18.2689C11.3487 17.9008 11.7623 17.7092 12.1647 17.8031L16.6691 18.821C16.9262 18.8811 17.1348 19.0801 17.1907 19.343C17.1907 19.343 17.1907 19.343 17.1907 19.3468C17.2354 19.5684 17.2578 19.7975 17.2578 20.0304L17.2652 20.0379Z" fill="#F5BD00"/>
<path d="M13.8972 24.0002C6.22951 24.0002 0 17.7167 0 9.99835C0 9.9683 0 9.94201 0 9.91947C0.0260805 7.75985 1.78465 6.00586 3.9307 6.00586C4.18778 6.00586 4.44113 6.03215 4.68703 6.08098C5.17139 6.17487 5.54769 6.55046 5.65946 7.03872L6.66915 11.5908C6.81446 12.2444 6.50522 12.9204 5.91654 13.2322L5.28316 13.5664C6.22578 15.8462 8.06632 17.7016 10.3316 18.6481L10.6706 18.0059C10.9836 17.4162 11.6505 17.1082 12.2951 17.2547L16.7996 18.2725C17.2765 18.3814 17.649 18.757 17.7459 19.2303C17.8018 19.5007 17.8279 19.7674 17.8279 20.034C17.8279 22.2162 16.0656 23.9927 13.9009 23.9965L13.8972 24.0002ZM1.11773 9.99084C1.13264 17.112 6.85544 22.8735 13.8897 22.8735C15.4471 22.8735 16.7064 21.6002 16.7064 20.0378C16.7064 19.8462 16.6878 19.6547 16.6505 19.4631C16.6431 19.4218 16.6021 19.388 16.5537 19.3768L12.0492 18.3589C11.8927 18.3251 11.7325 18.4002 11.6542 18.5429L10.8569 20.0491L10.4024 19.8875C7.42548 18.8246 5.11177 16.496 4.05365 13.4913L3.88972 13.0293L5.39493 12.2331C5.53651 12.158 5.61475 11.9927 5.5775 11.835L4.56781 7.28285C4.55663 7.23403 4.5231 7.19271 4.48212 7.1852C4.29583 7.14764 4.11326 7.13262 3.9307 7.13262C2.39195 7.13262 1.13264 8.39084 1.12146 9.94201V9.99084H1.11773Z" fill="#070304"/>
<path d="M13.7854 14.8619C13.4762 14.8619 13.2265 14.6102 13.2265 14.2985C13.2265 12.3868 11.6841 10.8318 9.78763 10.8318C9.47839 10.8318 9.22876 10.5802 9.22876 10.2685C9.22876 9.95672 9.47839 9.70508 9.78763 9.70508C12.3025 9.70508 14.3443 11.7671 14.3443 14.2985C14.3443 14.6102 14.0946 14.8619 13.7854 14.8619Z" fill="black"/>
<path d="M16.7847 15.8683C16.4754 15.8683 16.2258 15.6167 16.2258 15.305C16.2258 11.1698 12.8875 7.80449 8.78543 7.80449C8.47619 7.80449 8.22656 7.55285 8.22656 7.24111C8.22656 6.92938 8.47619 6.67773 8.78543 6.67773C13.5023 6.67773 17.3436 10.5463 17.3436 15.305C17.3436 15.6167 17.0939 15.8683 16.7847 15.8683Z" fill="black"/>
<path d="M19.4411 15.2038C19.1319 15.2038 18.8823 14.9521 18.8823 14.6404C18.8823 9.39343 14.6498 5.12676 9.44485 5.12676C9.13561 5.12676 8.88599 4.87512 8.88599 4.56338C8.88599 4.25164 9.13561 4 9.44485 4C15.2645 4 20 8.77371 20 14.6404C20 14.9521 19.7504 15.2038 19.4411 15.2038Z" fill="black"/>
</g>
<defs>
<clipPath id="clip0_15_270">
<rect width="20" height="20" fill="white" transform="translate(0 4)"/>
</clipPath>
</defs>
</svg>
