<svg width="191" height="191" viewBox="0 0 191 191" fill="none" xmlns="http://www.w3.org/2000/svg">
<circle cx="95.5" cy="95.5" r="95.5" fill="#F5F5F5"/>
<g clip-path="url(#clip0_15_575)">
<path d="M129.477 63.9198H61.5474V48H129.477V63.9198ZM64.0113 61.4744H127.014V50.4454H64.0113V61.4744Z" fill="#000002"/>
<path d="M143.325 102.411C140.319 102.411 140.319 104.71 137.337 104.71C134.356 104.71 134.331 102.411 131.35 102.411C128.369 102.411 128.369 104.71 125.363 104.71C122.357 104.71 122.381 102.411 119.375 102.411C116.369 102.411 116.394 104.71 113.388 104.71C110.382 104.71 110.407 102.411 107.425 102.411C104.444 102.411 104.444 104.71 101.463 104.71C98.4814 104.71 98.4814 102.411 95.4755 102.411C92.4695 102.411 92.4941 104.71 89.4881 104.71C86.4822 104.71 86.5068 102.411 83.5255 102.411C80.5441 102.411 80.5441 104.71 77.5382 104.71C74.5322 104.71 74.5568 102.411 71.5755 102.411C68.5942 102.411 68.5942 104.71 65.5882 104.71C62.5822 104.71 62.6069 102.411 59.6255 102.411C56.6442 102.411 56.6442 104.71 53.6629 104.71C50.6815 104.71 50.6815 102.411 47.7002 102.411L57.5805 71.3784C59.9458 71.3784 59.9458 73.0169 62.3112 73.0169C64.6765 73.0169 64.6765 71.3784 67.0419 71.3784C69.4073 71.3784 69.4073 73.0169 71.7726 73.0169C74.138 73.0169 74.138 71.3784 76.5033 71.3784C78.8687 71.3784 78.8687 73.0169 81.234 73.0169C83.5994 73.0169 83.5994 71.3784 85.9648 71.3784C88.3301 71.3784 88.3301 73.0169 90.6955 73.0169C93.0608 73.0169 93.0608 71.3784 95.4262 71.3784C97.7915 71.3784 97.7915 73.0169 100.157 73.0169C102.522 73.0169 102.522 71.3784 104.888 71.3784C107.253 71.3784 107.253 73.0169 109.618 73.0169C111.984 73.0169 111.984 71.3784 114.374 71.3784C116.764 71.3784 116.739 73.0169 119.129 73.0169C121.519 73.0169 121.494 71.3784 123.884 71.3784C126.274 71.3784 126.25 73.0169 128.64 73.0169C131.03 73.0169 131.005 71.3784 133.395 71.3784L143.275 102.387L143.325 102.411Z" fill="#F5BD00"/>
<path d="M137.337 105.908C135.415 105.908 134.405 105.126 133.592 104.514C132.878 103.976 132.434 103.634 131.35 103.634C130.266 103.634 129.822 103.976 129.108 104.514C128.295 105.126 127.284 105.908 125.363 105.908C123.441 105.908 122.431 105.126 121.617 104.514C120.928 103.976 120.459 103.634 119.375 103.634C118.291 103.634 117.848 103.976 117.133 104.514C116.32 105.126 115.31 105.908 113.388 105.908C111.466 105.908 110.456 105.126 109.643 104.514C108.953 103.976 108.485 103.634 107.401 103.634C106.317 103.634 105.873 103.976 105.183 104.514C104.37 105.126 103.36 105.908 101.438 105.908C99.5162 105.908 98.506 105.126 97.6929 104.514C97.003 103.976 96.5348 103.634 95.4507 103.634C94.3666 103.634 93.9231 103.976 93.2086 104.514C92.3955 105.126 91.3853 105.908 89.4634 105.908C87.5416 105.908 86.5314 105.126 85.7183 104.514C85.0284 103.976 84.5602 103.634 83.4761 103.634C82.392 103.634 81.9485 103.976 81.2339 104.514C80.4209 105.126 79.4106 105.908 77.4888 105.908C75.5669 105.908 74.5567 105.126 73.7437 104.514C73.0538 103.976 72.5856 103.634 71.5015 103.634C70.4174 103.634 69.9739 103.976 69.2593 104.514C68.4462 105.126 67.436 105.908 65.5142 105.908C63.5923 105.908 62.5821 105.126 61.769 104.514C61.0791 103.976 60.611 103.634 59.5269 103.634C58.4428 103.634 57.9993 103.976 57.2847 104.514C56.4716 105.126 55.4614 105.908 53.5396 105.908C51.6177 105.908 50.6075 105.126 49.7944 104.514C49.1045 103.976 48.6364 103.634 47.5523 103.634H46L56.6687 70.1558H57.5804C59.1573 70.1558 60.0197 70.7672 60.6603 71.2073C61.2023 71.5742 61.5226 71.8187 62.3111 71.8187C63.0996 71.8187 63.4445 71.5986 63.9866 71.2073C64.6272 70.7672 65.4895 70.1558 67.0665 70.1558C68.6434 70.1558 69.5057 70.7672 70.1463 71.2073C70.6884 71.5742 71.0087 71.8187 71.7972 71.8187C72.5856 71.8187 72.9306 71.5986 73.4726 71.2073C74.1132 70.7672 74.9756 70.1558 76.5525 70.1558C78.1294 70.1558 78.9918 70.7672 79.6324 71.2073C80.1745 71.5742 80.4948 71.8187 81.3079 71.8187C82.121 71.8187 82.4413 71.5986 82.9833 71.2073C83.6239 70.7672 84.4863 70.1558 86.0632 70.1558C87.6401 70.1558 88.5025 70.7672 89.1431 71.2073C89.6852 71.5742 90.0055 71.8187 90.8186 71.8187C91.6317 71.8187 91.952 71.5986 92.494 71.2073C93.1346 70.7672 93.997 70.1558 95.5739 70.1558C97.1508 70.1558 98.0132 70.7672 98.6538 71.1829C99.1959 71.5497 99.5162 71.7942 100.329 71.7942C101.142 71.7942 101.463 71.5742 101.98 71.1829C102.621 70.7427 103.483 70.1313 105.06 70.1313C106.637 70.1313 107.499 70.7427 108.14 71.1829C108.682 71.5497 109.002 71.7942 109.815 71.7942C110.628 71.7942 110.949 71.5742 111.491 71.1829C112.131 70.7427 112.994 70.1558 114.571 70.1558C116.148 70.1558 117.01 70.7672 117.651 71.2073C118.193 71.5742 118.513 71.8187 119.326 71.8187C120.139 71.8187 120.459 71.5986 121.001 71.2073C121.642 70.7672 122.504 70.1803 124.081 70.1803C125.658 70.1803 126.521 70.7916 127.161 71.2073C127.703 71.5742 128.024 71.8187 128.837 71.8187C129.65 71.8187 129.97 71.5986 130.512 71.2073C131.153 70.7672 132.015 70.1803 133.592 70.1803H134.504L145.172 103.634H143.497C142.413 103.634 141.945 103.976 141.255 104.514C140.442 105.126 139.432 105.908 137.51 105.908H137.337ZM131.35 101.164C133.272 101.164 134.282 101.946 135.095 102.558C135.81 103.096 136.253 103.438 137.337 103.438C138.421 103.438 138.889 103.096 139.579 102.558C140.121 102.142 140.762 101.653 141.723 101.384L132.582 72.7235C132.311 72.8213 132.064 72.9925 131.769 73.1881C131.128 73.6283 130.266 74.2152 128.689 74.2152C127.112 74.2152 126.25 73.6039 125.609 73.1881C125.067 72.8213 124.747 72.5768 123.934 72.5768C123.12 72.5768 122.8 72.7969 122.258 73.1881C121.617 73.6283 120.755 74.2152 119.178 74.2152C117.601 74.2152 116.739 73.6039 116.098 73.1881C115.556 72.8213 115.236 72.5768 114.423 72.5768C113.61 72.5768 113.289 72.7969 112.747 73.1881C112.107 73.6283 111.244 74.2152 109.667 74.2152C108.091 74.2152 107.228 73.6039 106.588 73.1637C106.046 72.7969 105.725 72.5523 104.912 72.5523C104.099 72.5523 103.803 72.7724 103.261 73.1637C102.621 73.6039 101.758 74.2152 100.181 74.2152C98.6045 74.2152 97.7422 73.6039 97.1015 73.1881C96.5595 72.8213 96.2392 72.5768 95.4261 72.5768C94.613 72.5768 94.2927 72.7969 93.7506 73.1881C93.11 73.6283 92.2476 74.2152 90.6707 74.2152C89.0938 74.2152 88.2315 73.6039 87.5908 73.1637C87.0488 72.7969 86.7285 72.5523 85.9154 72.5523C85.1023 72.5523 84.782 72.7724 84.2399 73.1637C83.5993 73.6039 82.7369 74.1908 81.16 74.1908C79.5831 74.1908 78.7208 73.5794 78.0801 73.1392C77.5381 72.7724 77.2178 72.5279 76.4293 72.5279C75.6409 72.5279 75.2959 72.748 74.7539 73.1392C74.1132 73.5794 73.2509 74.1908 71.674 74.1908C70.0971 74.1908 69.2347 73.5794 68.5941 73.1392C68.052 72.7724 67.7317 72.5279 66.9433 72.5279C66.1548 72.5279 65.8099 72.748 65.2678 73.1392C64.6272 73.5794 63.7648 74.1908 62.1879 74.1908C60.611 74.1908 59.7486 73.5794 59.108 73.1392C58.8123 72.9436 58.5906 72.7724 58.2949 72.6746L49.3016 101.408C50.2379 101.677 50.8785 102.167 51.4206 102.582C52.1105 103.12 52.5786 103.463 53.6628 103.463C54.7469 103.463 55.1904 103.12 55.9049 102.582C56.718 101.971 57.7282 101.188 59.6501 101.188C61.5719 101.188 62.5821 101.971 63.3952 102.582C64.0851 103.12 64.5533 103.463 65.6374 103.463C66.7215 103.463 67.165 103.12 67.8795 102.582C68.6926 101.971 69.7028 101.188 71.6247 101.188C73.5465 101.188 74.5567 101.971 75.3698 102.582C76.0597 103.12 76.5279 103.463 77.612 103.463C78.6961 103.463 79.1396 103.12 79.8542 102.582C80.6672 101.971 81.6774 101.188 83.5993 101.188C85.5212 101.188 86.5314 101.971 87.3444 102.582C88.0343 103.12 88.5025 103.463 89.5866 103.463C90.6707 103.463 91.1142 103.12 91.8288 102.582C92.6419 101.971 93.6521 101.188 95.5739 101.188C97.4958 101.188 98.506 101.971 99.3191 102.582C100.009 103.12 100.477 103.463 101.561 103.463C102.645 103.463 103.089 103.12 103.803 102.582C104.616 101.971 105.627 101.188 107.549 101.188C109.47 101.188 110.481 101.971 111.294 102.582C111.984 103.12 112.452 103.463 113.536 103.463C114.62 103.463 115.063 103.12 115.778 102.582C116.591 101.971 117.601 101.188 119.523 101.188C121.445 101.188 122.455 101.971 123.268 102.582C123.958 103.12 124.426 103.463 125.51 103.463C126.595 103.463 127.038 103.12 127.753 102.582C128.566 101.971 129.576 101.188 131.498 101.188L131.35 101.164Z" fill="black"/>
<path d="M60.8328 102.386L58.4182 101.824L65.8592 70.5713L68.2492 71.1337L60.8328 102.386Z" fill="#000002"/>
<path d="M75.3192 70.6636L70.3464 101.896L72.7801 102.277L77.7529 71.0453L75.3192 70.6636Z" fill="#000002"/>
<path d="M96.7073 70.8647H94.2434V102.117H96.7073V70.8647Z" fill="#000002"/>
<path d="M106.2 70.7528L103.743 70.9438L106.209 102.174L108.665 101.983L106.2 70.7528Z" fill="#000002"/>
<path d="M115.661 70.6769L113.227 71.0557L118.161 102.294L120.595 101.915L115.661 70.6769Z" fill="#000002"/>
<path d="M125.132 70.566L122.734 71.1265L130.143 102.357L132.541 101.796L125.132 70.566Z" fill="#000002"/>
<path d="M71.9205 63.7974H69.4565V73.3346H71.9205V63.7974Z" fill="#000002"/>
<path d="M122.874 63.7974H120.41V73.3346H122.874V63.7974Z" fill="#000002"/>
<path d="M107.425 131.512H65.6128C64.9229 131.512 64.3809 130.974 64.3809 130.289V108.085C64.3809 107.4 64.9229 106.862 65.6128 106.862H107.425C108.115 106.862 108.657 107.4 108.657 108.085V130.289C108.657 130.974 108.115 131.512 107.425 131.512ZM66.8694 129.066H106.193V109.307H66.8448V129.066H66.8694Z" fill="#000002"/>
<path d="M127.629 141H112.402C111.712 141 111.17 140.462 111.17 139.777V112.975C111.17 112.29 111.712 111.752 112.402 111.752H127.629C128.319 111.752 128.861 112.29 128.861 112.975V139.777C128.861 140.462 128.319 141 127.629 141ZM113.634 138.554H126.397V114.198H113.634V138.554Z" fill="#000002"/>
<path d="M132.607 141H57.137C56.4471 141 55.905 140.462 55.905 139.777V103.071H58.3689V138.555H131.35V103.071H133.814V139.777C133.814 140.462 133.272 141 132.582 141H132.607Z" fill="#000002"/>
<path d="M84.7623 70.7867L82.2969 102.017L84.7533 102.208L87.2187 70.9778L84.7623 70.7867Z" fill="#000002"/>
</g>
<defs>
<clipPath id="clip0_15_575">
<rect width="99" height="93" fill="white" transform="translate(46 48)"/>
</clipPath>
</defs>
</svg>
