<svg width="41" height="40" viewBox="0 0 41 40" fill="none" xmlns="http://www.w3.org/2000/svg">
<circle cx="20.2439" cy="20" r="20" fill="#C0C0C0"/>
<g clip-path="url(#clip0_15_222)">
<path d="M22.5632 14.0352H17.2237C15.2094 14.0352 13.5776 15.5762 13.5776 17.4786V22.5215C13.5776 24.4239 15.2094 25.965 17.2237 25.965H22.5632C24.5775 25.965 26.2092 24.4239 26.2092 22.5215V17.4786C26.2092 15.5762 24.5775 14.0352 22.5632 14.0352ZM25.0457 22.61C25.0457 23.8726 23.9618 24.8962 22.625 24.8962H17.1619C15.825 24.8962 14.7412 23.8726 14.7412 22.61V17.4485C14.7412 16.1859 15.825 15.1623 17.1619 15.1623H22.6269C23.9638 15.1623 25.0477 16.1859 25.0477 17.4485V22.61H25.0457Z" fill="white"/>
<path d="M19.8934 16.9351C18.0823 16.9351 16.616 18.3219 16.616 20.0304C16.616 21.739 18.0843 23.1258 19.8934 23.1258C21.7025 23.1258 23.1708 21.739 23.1708 20.0304C23.1708 18.3219 21.7025 16.9351 19.8934 16.9351ZM19.8934 22.0382C18.7199 22.0382 17.7695 21.1406 17.7695 20.0323C17.7695 18.924 18.7199 18.0264 19.8934 18.0264C21.0669 18.0264 22.0173 18.924 22.0173 20.0323C22.0173 21.1406 21.0669 22.0382 19.8934 22.0382Z" fill="white"/>
<path d="M23.2804 17.5371C23.7018 17.5371 24.0435 17.2144 24.0435 16.8164C24.0435 16.4184 23.7018 16.0957 23.2804 16.0957C22.859 16.0957 22.5173 16.4184 22.5173 16.8164C22.5173 17.2144 22.859 17.5371 23.2804 17.5371Z" fill="white"/>
</g>
<defs>
<clipPath id="clip0_15_222">
<rect width="12.6316" height="11.9298" fill="white" transform="translate(13.5776 14.0352)"/>
</clipPath>
</defs>
</svg>
