<svg width="41" height="40" viewBox="0 0 41 40" fill="none" xmlns="http://www.w3.org/2000/svg">
<circle cx="20.488" cy="20" r="20" fill="#C0C0C0"/>
<g clip-path="url(#clip0_15_240)">
<path d="M27.5478 16.4904C27.3774 15.8013 26.8782 15.2558 26.2452 15.0725C25.0967 14.7368 20.4868 14.7368 20.4868 14.7368C20.4868 14.7368 15.8789 14.7368 14.7284 15.0725C14.0953 15.2558 13.5942 15.8013 13.4258 16.4904C13.1194 17.7404 13.1194 20.3509 13.1194 20.3509C13.1194 20.3509 13.1194 22.9613 13.4278 24.2113C13.5982 24.9004 14.0974 25.4459 14.7304 25.6292C15.8789 25.9649 20.4888 25.9649 20.4888 25.9649C20.4888 25.9649 25.0967 25.9649 26.2472 25.6292C26.8803 25.4437 27.3814 24.9004 27.5498 24.2113C27.8583 22.9613 27.8583 20.3509 27.8583 20.3509C27.8583 20.3509 27.8583 17.7404 27.5498 16.4904H27.5478ZM19.0137 22.7559V17.9458L22.8425 20.3509L19.0137 22.7559Z" fill="white"/>
</g>
<defs>
<clipPath id="clip0_15_240">
<rect width="14.7368" height="11.2281" fill="white" transform="translate(13.1194 14.7368)"/>
</clipPath>
</defs>
</svg>
