<svg width="115" height="43" viewBox="0 0 115 43" fill="none" xmlns="http://www.w3.org/2000/svg">
<rect width="114.01" height="43" rx="20" fill="#FFCB44"/>
<g clip-path="url(#clip0_15_266)">
<path d="M27.43 16.6498C26 15.2098 23.66 15.2098 22.22 16.6498L22 16.8698L21.78 16.6498C20.35 15.2098 18.01 15.2098 16.58 16.6498C15.14 18.0798 15.14 20.4198 16.58 21.8598L16.81 22.0898L21.82 27.0998C21.88 27.1598 21.95 27.2198 22.01 27.2698C22.08 27.2098 22.14 27.1598 22.2 27.0998L27.21 22.0898L27.44 21.8598C28.87 20.4298 28.87 18.0798 27.44 16.6498H27.43Z" stroke="black" stroke-miterlimit="10"/>
</g>
<path d="M34.9113 16.822V17.774H39.5173C39.2513 20.742 37.5293 23.15 34.3233 24.76L34.9533 25.656C39.0133 23.626 40.6513 20.392 40.6513 16.822H34.9113ZM45.9153 20.574H43.8993V15.478H42.7513V28.036H43.8993V21.526H45.9153V20.574ZM54.5142 19.734H56.1102V23.108H57.2162V15.492H56.1102V18.796H54.5142V15.73H53.4222V22.688H54.5142V19.734ZM50.9582 21.092H48.2562V17.48H50.9582V21.092ZM52.0222 16.584H47.1782V21.974H52.0222V16.584ZM53.0722 27.126C51.1822 27.126 50.0202 26.608 50.0202 25.726C50.0202 24.844 51.1822 24.326 53.0722 24.326C54.9762 24.326 56.1382 24.844 56.1382 25.726C56.1382 26.608 54.9762 27.126 53.0722 27.126ZM53.0722 23.43C50.4962 23.43 48.8862 24.27 48.8862 25.726C48.8862 27.168 50.4962 28.022 53.0722 28.022C55.6622 28.022 57.2722 27.168 57.2722 25.726C57.2722 24.27 55.6622 23.43 53.0722 23.43ZM66.4031 21.526C64.5831 20.882 63.3511 19.314 63.3511 17.676V17.214H66.1091V16.276H59.4031V17.214H62.2031V17.69C62.2031 19.468 60.9011 21.134 59.0391 21.806L59.6411 22.702C61.1111 22.17 62.2591 21.022 62.8051 19.58C63.3511 20.868 64.4291 21.918 65.8291 22.422L66.4031 21.526ZM62.3011 24.354H68.2231V26.944H62.3011V24.354ZM61.1811 27.868H69.3431V23.444H61.1811V27.868ZM68.1811 15.478V18.628H65.7031V19.58H68.1811V22.828H69.3431V15.478H68.1811ZM82.7849 17.186C82.7849 18.166 82.7849 19.09 82.4489 20.378L83.5689 20.504C83.9189 19.216 83.9189 18.194 83.9189 17.186V16.122H75.3649V17.046H82.7849V17.186ZM79.6349 27.126C77.6749 27.126 76.4149 26.594 76.4149 25.726C76.4149 24.83 77.6749 24.298 79.6349 24.298C81.6089 24.298 82.8689 24.83 82.8689 25.726C82.8689 26.594 81.6089 27.126 79.6349 27.126ZM79.6349 23.416C76.9609 23.416 75.2669 24.27 75.2669 25.726C75.2669 27.154 76.9609 28.022 79.6349 28.022C82.3089 28.022 84.0169 27.154 84.0169 25.726C84.0169 24.27 82.3089 23.416 79.6349 23.416ZM79.8169 21.33V18.922H78.6689V21.33H74.0349V22.268H85.3329V21.33H79.8169ZM86.9178 16.458V17.396H91.5378C91.2998 19.608 89.3678 21.386 86.4138 22.31L86.8758 23.22C90.4878 22.086 92.7698 19.706 92.7698 16.458H86.9178ZM89.4518 23.724H88.3038V27.756H96.6758V26.818H89.4518V23.724ZM96.1298 19.3V15.492H94.9818V24.662H96.1298V20.252H97.9918V19.3H96.1298Z" fill="black"/>
<defs>
<clipPath id="clip0_15_266">
<rect width="14.01" height="12.86" fill="white" transform="translate(15 15.0698)"/>
</clipPath>
</defs>
</svg>
