<svg width="40" height="40" viewBox="0 0 40 40" fill="none" xmlns="http://www.w3.org/2000/svg">
<circle cx="20" cy="20" r="20" fill="#C0C0C0"/>
<g clip-path="url(#clip0_217_14)">
<path fill-rule="evenodd" clip-rule="evenodd" d="M29.091 15.2301C28.4993 15.4763 27.8642 15.6426 27.1963 15.7166C27.8775 15.3341 28.4 14.7278 28.6466 14.006C28.0088 14.3602 27.3036 14.618 26.5523 14.7561C25.9509 14.1548 25.0931 13.7798 24.1449 13.7798C22.3238 13.7798 20.8469 15.1644 20.8469 16.8717C20.8469 17.1137 20.8762 17.3499 20.932 17.5761C18.1911 17.448 15.7607 16.2164 14.1338 14.3461C13.85 14.8027 13.6877 15.3341 13.6877 15.9004C13.6877 16.9732 14.2696 17.9195 15.1548 18.4742C14.6137 18.4584 14.1055 18.3187 13.6611 18.0875C13.6611 18.1008 13.6611 18.1133 13.6611 18.1266C13.6611 19.6252 14.7982 20.8743 16.3071 21.1587C16.0303 21.2294 15.7385 21.2668 15.4378 21.2668C15.2249 21.2668 15.0182 21.2477 14.8169 21.2111C15.2364 22.4394 16.4543 23.3333 17.8975 23.3583C16.7683 24.1874 15.3464 24.6822 13.8012 24.6822C13.5351 24.6822 13.2725 24.6672 13.0144 24.639C14.4745 25.5163 16.2077 26.0286 18.0705 26.0286C24.1369 26.0286 27.4544 21.3167 27.4544 17.2301C27.4544 17.0963 27.4508 16.9624 27.4446 16.8301C28.0895 16.3944 28.6483 15.8497 29.0901 15.2293L29.091 15.2301Z" fill="white"/>
</g>
<defs>
<clipPath id="clip0_217_14">
<rect width="16.0766" height="12.2488" fill="white" transform="translate(13.0144 13.7798)"/>
</clipPath>
</defs>
</svg>
