<svg width="191" height="191" viewBox="0 0 191 191" fill="none" xmlns="http://www.w3.org/2000/svg">
<circle cx="95.5" cy="95.5" r="95.5" fill="#F5F5F5"/>
<g clip-path="url(#clip0_15_574)">
<path d="M108.128 64.6213H83.2805C80.1226 64.6213 77.5767 62.0492 77.5767 58.9137C77.5767 55.7782 80.1471 53.2061 83.2805 53.2061H88.7151V50.732C88.7151 47.572 91.2855 45.0244 94.419 45.0244H96.9894C100.147 45.0244 102.693 47.5965 102.693 50.732V53.2061H108.128C111.286 53.2061 113.832 55.7782 113.832 58.9137C113.832 62.0492 111.261 64.6213 108.128 64.6213ZM83.2805 55.6312C81.4935 55.6312 80.0247 57.101 80.0247 58.8892C80.0247 60.6774 81.4935 62.1472 83.2805 62.1472H108.128C109.915 62.1472 111.384 60.6774 111.384 58.8892C111.384 57.101 109.915 55.6312 108.128 55.6312H101.469C100.784 55.6312 100.245 55.0923 100.245 54.4064V50.7075C100.245 48.8948 98.7764 47.4495 96.9894 47.4495H94.419C92.6319 47.4495 91.1631 48.9193 91.1631 50.7075V54.4064C91.1631 55.0923 90.6246 55.6312 89.9391 55.6312H83.2805Z" fill="#000002"/>
<path d="M131.409 89.1416H128.961V60.0648H112.363V57.6152H130.185C130.87 57.6152 131.409 58.1541 131.409 58.84V89.1416Z" fill="#000002"/>
<path d="M130.185 141H61.224C60.5386 141 60 140.461 60 139.775V58.84C60 58.1541 60.5386 57.6152 61.224 57.6152H78.8007V60.0648H62.448V138.55H128.961V109.62H131.409V139.775C131.409 140.461 130.87 141 130.185 141Z" fill="#000002"/>
<path d="M116.892 77.9229H74.5413V80.3725H116.892V77.9229Z" fill="#000002"/>
<path d="M116.892 92.645H74.5413V95.0946H116.892V92.645Z" fill="#000002"/>
<path d="M102.522 107.342H74.5413V109.792H102.522V107.342Z" fill="#000002"/>
<path d="M102.522 122.064H74.5413V124.514H102.522V122.064Z" fill="#000002"/>
<path d="M120.662 120.35L109.744 120.962L110.356 110.037L140.956 79.417L151.262 89.7298L120.662 120.35Z" fill="#F5BD00"/>
<path d="M108.446 122.261L109.181 109.498L140.98 77.6777L153.025 89.7298L121.225 121.55L108.471 122.285L108.446 122.261ZM111.555 110.551L111.041 119.639L120.123 119.125L149.524 89.7053L140.956 81.1317L111.555 110.551Z" fill="black"/>
<path d="M112.141 108.26L110.41 109.992L120.709 120.298L122.44 118.566L112.141 108.26Z" fill="black"/>
<path d="M136.327 84.0516L134.596 85.7837L144.896 96.0899L146.627 94.3577L136.327 84.0516Z" fill="black"/>
</g>
<defs>
<clipPath id="clip0_15_574">
<rect width="93" height="96" fill="white" transform="translate(60 45)"/>
</clipPath>
</defs>
</svg>
