<svg width="191" height="191" viewBox="0 0 191 191" fill="none" xmlns="http://www.w3.org/2000/svg">
<circle cx="95.5" cy="95.5" r="95.5" fill="#F5F5F5"/>
<g clip-path="url(#clip0_15_573)">
<path d="M97.2085 54H94.7668V66.3132H97.2085V54Z" fill="#000002"/>
<path d="M97.2085 129.452H94.7668V144.543H97.2085V129.452Z" fill="#000002"/>
<path d="M135.323 130.681H56.6523C53.2828 130.681 50.5481 127.928 50.5481 124.536V66.313H52.9898V124.536C52.9898 126.576 54.6257 128.223 56.6523 128.223H135.323C137.35 128.223 138.986 126.576 138.986 124.536V66.313H141.428V124.536C141.428 127.928 138.693 130.681 135.323 130.681Z" fill="#000002"/>
<path d="M152 65.0845H40V67.5422H152V65.0845Z" fill="#000002"/>
<path d="M66.0527 116.205C66.9806 115.345 121.308 70.5649 121.308 70.5649V116.205H66.0527Z" fill="#F5BD00"/>
<path d="M82.3633 106.964H79.9216V114.362H82.3633V106.964Z" fill="#000002"/>
<path d="M92.2766 97.895H89.835V114.362H92.2766V97.895Z" fill="#000002"/>
<path d="M102.165 101.434H99.7236V114.362H102.165V101.434Z" fill="#000002"/>
<path d="M112.054 86.3438H109.613V114.362H112.054V86.3438Z" fill="#000002"/>
<path d="M112.664 144.542H79.311V147H112.664V144.542Z" fill="#000002"/>
</g>
<defs>
<clipPath id="clip0_15_573">
<rect width="112" height="93" fill="white" transform="translate(40 54)"/>
</clipPath>
</defs>
</svg>
