<svg width="191" height="191" viewBox="0 0 191 191" fill="none" xmlns="http://www.w3.org/2000/svg">
<circle cx="95.5" cy="95.5" r="95.5" fill="#F5F5F5"/>
<g clip-path="url(#clip0_15_576)">
<path d="M93.2732 131.326C71.6881 131.326 54.1396 113.534 54.1396 91.6506C54.1396 69.7668 71.7123 52 93.2732 52C114.834 52 132.407 69.7913 132.407 91.6751C132.407 113.559 114.858 131.35 93.2732 131.35V131.326ZM93.2732 54.4506C73.0417 54.4506 56.581 71.1391 56.581 91.6751C56.581 112.211 73.0417 128.9 93.2974 128.9C113.553 128.9 130.014 112.211 130.014 91.6751C130.014 71.1391 113.529 54.4506 93.2732 54.4506Z" fill="#000002"/>
<path d="M98.5667 138.506L97.8416 136.178C117.058 130.027 129.99 112.138 129.99 91.6753H132.407C132.407 113.216 118.798 132.037 98.5667 138.531V138.506Z" fill="#000002"/>
<path d="M93.273 143.775C95.8495 143.775 97.9381 141.657 97.9381 139.045C97.9381 136.433 95.8495 134.315 93.273 134.315C90.6965 134.315 88.6079 136.433 88.6079 139.045C88.6079 141.657 90.6965 143.775 93.273 143.775Z" fill="#F5BD00"/>
<path d="M93.2731 145C90.0341 145 87.3994 142.329 87.3994 139.045C87.3994 135.761 90.0341 133.09 93.2731 133.09C96.512 133.09 99.1467 135.761 99.1467 139.045C99.1467 142.329 96.512 145 93.2731 145ZM93.2731 135.541C91.3635 135.541 89.8166 137.109 89.8166 139.045C89.8166 140.981 91.3635 142.55 93.2731 142.55C95.1826 142.55 96.7296 140.981 96.7296 139.045C96.7296 137.109 95.1826 135.541 93.2731 135.541Z" fill="black"/>
<path d="M128.322 107.359C136.854 107.359 143.792 100.326 143.792 91.675C143.792 83.0244 136.854 75.9912 128.322 75.9912C128.322 75.9912 136.105 91.9201 128.322 107.359Z" fill="#F5BD00"/>
<path d="M128.322 108.584H126.34L127.234 106.795C134.63 92.1163 127.306 76.6776 127.234 76.5305L126.388 74.7661H128.322C137.507 74.7661 145 82.3384 145 91.6752C145 101.012 137.531 108.584 128.322 108.584ZM130.207 77.3392C131.947 81.8728 135.476 93.8072 130.28 105.987C137.217 105.006 142.559 98.9535 142.559 91.6752C142.559 84.3969 137.168 78.295 130.183 77.3392H130.207Z" fill="black"/>
<path d="M57.0401 105.57C52.0608 105.57 48 100.056 48 93.2926C48 86.529 52.0608 81.0151 57.0401 81.0151V83.4657C53.3902 83.4657 50.4171 87.8768 50.4171 93.2926C50.4171 98.7084 53.3902 103.119 57.0401 103.119V105.57Z" fill="#000002"/>
<path d="M61.6086 88.416C59.6265 88.416 58.4663 88.2935 58.3455 88.269L58.6113 85.8429C58.9256 85.8919 89.6233 89.0041 112.828 58.5923L114.737 60.0871C102.168 76.5551 87.5446 83.3433 77.4892 86.1369C70.6004 88.0484 64.9443 88.416 61.6086 88.416Z" fill="#000002"/>
<path d="M122.013 86.6515C107.728 86.6515 96.4395 77.2412 95.8594 76.7756L97.4064 74.8887C97.5514 75.0112 113.239 88.0239 130.134 83.0491L130.811 85.4017C127.79 86.2839 124.841 86.6515 122.013 86.6515Z" fill="#000002"/>
<path d="M95.0135 121.033C88.0763 121.033 82.4202 116.304 82.3235 116.23L83.8705 114.343C84.3297 114.735 95.1102 123.68 104.247 114.417L105.963 116.157C102.362 119.808 98.5184 121.033 94.9893 121.033H95.0135Z" fill="#000002"/>
</g>
<defs>
<clipPath id="clip0_15_576">
<rect width="97" height="93" fill="white" transform="translate(48 52)"/>
</clipPath>
</defs>
</svg>
